<svg width="82" height="78" viewBox="0 0 82 78" fill="none" xmlns="http://www.w3.org/2000/svg">
<g filter="url(#filter0_d_0_107)">
<path d="M10.0001 70L4.31994 59.9467L15.8664 60.0542L10.0001 70ZM78.0041 1.99999C77.5181 2.002 77.0327 2.00644 76.548 2.0134L76.5193 0.0136087C77.0109 0.00655007 77.5031 0.00204372 77.9959 8.52346e-06L78.0041 1.99999ZM73.6425 2.08619C72.6717 2.12117 71.7045 2.16701 70.7415 2.22432L70.6227 0.227851C71.6018 0.169578 72.5846 0.123012 73.5705 0.0874867L73.6425 2.08619ZM67.8471 2.43292C66.88 2.5151 65.9179 2.60972 64.9615 2.71745L64.7377 0.730017C65.7128 0.620177 66.6931 0.523771 67.6777 0.440098L67.8471 2.43292ZM62.0858 3.08401C61.1253 3.22112 60.1714 3.37246 59.2247 3.53869L58.8788 1.56883C59.8473 1.39878 60.8223 1.24411 61.8032 1.10409L62.0858 3.08401ZM56.3832 4.08782C55.4357 4.28821 54.4965 4.50471 53.5662 4.73804L53.0796 2.79812C54.0349 2.55854 54.9984 2.33646 55.9694 2.1311L56.3832 4.08782ZM50.7795 5.49605C49.8527 5.76852 48.936 6.0591 48.0299 6.36854L47.3835 4.47588C48.3176 4.15685 49.2619 3.85758 50.2154 3.57726L50.7795 5.49605ZM45.3251 7.36188C44.4293 7.71483 43.5453 8.08793 42.6739 8.48193L41.8499 6.65952C42.7522 6.25162 43.6665 5.86577 44.592 5.50111L45.3251 7.36188ZM40.0856 9.73368C39.2336 10.1738 38.3951 10.6359 37.5707 11.1209L36.5566 9.39707C37.4133 8.89311 38.2839 8.4133 39.1677 7.95675L40.0856 9.73368ZM35.1399 12.6458C34.3461 13.1763 33.5672 13.7303 32.8038 14.3087L31.5959 12.7147C32.3913 12.112 33.2025 11.535 34.0286 10.983L35.1399 12.6458ZM30.5727 16.108C29.8512 16.727 29.1454 17.3706 28.4561 18.0396L27.0632 16.6044C27.7821 15.9066 28.5182 15.2355 29.2705 14.59L30.5727 16.108ZM26.4619 20.0977C25.8235 20.7982 25.2013 21.5236 24.596 22.2747L23.0387 21.0197C23.6695 20.2371 24.318 19.481 24.9836 18.7506L26.4619 20.0977ZM22.8623 24.562C22.3128 25.3333 21.7794 26.1291 21.2627 26.9501L19.57 25.8849C20.1069 25.0317 20.6616 24.2041 21.2335 23.4014L22.8623 24.562ZM19.8024 29.4195C19.3445 30.2443 18.9022 31.0923 18.4759 31.9643L16.6791 31.0859C17.1204 30.1831 17.5788 29.3043 18.0538 28.4487L19.8024 29.4195ZM17.2783 34.577C16.9053 35.4461 16.5472 36.3372 16.2044 37.2507L14.3319 36.548C14.6854 35.606 15.055 34.6862 15.4404 33.7882L17.2783 34.577ZM15.2482 39.98C14.9542 40.8809 14.6742 41.802 14.4086 42.7439L12.4837 42.2011C12.7565 41.2337 13.0443 40.2866 13.3469 39.3596L15.2482 39.98ZM13.6804 45.528C13.4573 46.4506 13.2473 47.3918 13.0507 48.3519L11.0913 47.9507C11.2926 46.968 11.5077 46.0039 11.7364 45.058L13.6804 45.528ZM12.5136 51.2168C12.3548 52.1474 12.2079 53.0947 12.0732 54.0591L10.0924 53.7824C10.2298 52.7985 10.3798 51.8312 10.5421 50.8804L12.5136 51.2168ZM11.7134 56.9357C11.6078 57.8883 11.5136 58.8567 11.4309 59.8412L9.43795 59.6738C9.52205 58.6721 9.618 57.686 9.72558 56.7154L11.7134 56.9357ZM11.2255 62.7146C11.1687 63.672 11.1224 64.6438 11.0868 65.6302L9.0881 65.5581C9.12425 64.5565 9.17128 63.5692 9.22902 62.5961L11.2255 62.7146Z" fill="currentColor"/>
</g>
<defs>
<filter id="filter0_d_0_107" x="0.320312" y="0" width="81.6836" height="78" filterUnits="userSpaceOnUse" color-interpolation-filters="sRGB">
<feFlood flood-opacity="0" result="BackgroundImageFix"/>
<feColorMatrix in="SourceAlpha" type="matrix" values="0 0 0 0 0 0 0 0 0 0 0 0 0 0 0 0 0 0 127 0" result="hardAlpha"/>
<feOffset dy="4"/>
<feGaussianBlur stdDeviation="2"/>
<feComposite in2="hardAlpha" operator="out"/>
<feColorMatrix type="matrix" values="0 0 0 0 0 0 0 0 0 0 0 0 0 0 0 0 0 0 0.25 0"/>
<feBlend mode="normal" in2="BackgroundImageFix" result="effect1_dropShadow_0_107"/>
<feBlend mode="normal" in="SourceGraphic" in2="effect1_dropShadow_0_107" result="shape"/>
</filter>
</defs>
</svg>
