<svg width="82" height="78" viewBox="0 0 82 78" fill="none" xmlns="http://www.w3.org/2000/svg">
<g filter="url(#filter0_d_0_108)">
<path d="M71.9999 70L77.6801 59.9467L66.1336 60.0542L71.9999 70ZM3.99587 1.99999C4.48192 2.002 4.96732 2.00644 5.45199 2.0134L5.48071 0.0136087C4.98909 0.00655007 4.49687 0.00204372 4.00413 8.52346e-06L3.99587 1.99999ZM8.35752 2.08619C9.32832 2.12117 10.2955 2.16701 11.2585 2.22432L11.3773 0.227851C10.3982 0.169578 9.41538 0.123012 8.42954 0.0874867L8.35752 2.08619ZM14.1529 2.43292C15.12 2.5151 16.0821 2.60972 17.0385 2.71745L17.2623 0.730017C16.2872 0.620177 15.3069 0.523771 14.3223 0.440098L14.1529 2.43292ZM19.9142 3.08401C20.8747 3.22112 21.8286 3.37246 22.7753 3.53869L23.1212 1.56883C22.1527 1.39878 21.1777 1.24411 20.1968 1.10409L19.9142 3.08401ZM25.6168 4.08782C26.5643 4.28821 27.5035 4.50471 28.4338 4.73804L28.9204 2.79812C27.9651 2.55854 27.0016 2.33646 26.0306 2.1311L25.6168 4.08782ZM31.2205 5.49605C32.1473 5.76852 33.064 6.0591 33.9701 6.36854L34.6165 4.47588C33.6824 4.15685 32.7381 3.85758 31.7846 3.57726L31.2205 5.49605ZM36.6749 7.36188C37.5707 7.71483 38.4547 8.08793 39.3261 8.48193L40.1501 6.65952C39.2478 6.25162 38.3335 5.86577 37.408 5.50111L36.6749 7.36188ZM41.9144 9.73368C42.7664 10.1738 43.6049 10.6359 44.4293 11.1209L45.4434 9.39707C44.5867 8.89311 43.7161 8.4133 42.8323 7.95675L41.9144 9.73368ZM46.8601 12.6458C47.6539 13.1763 48.4328 13.7303 49.1962 14.3087L50.4041 12.7147C49.6087 12.112 48.7975 11.535 47.9714 10.983L46.8601 12.6458ZM51.4273 16.108C52.1488 16.727 52.8546 17.3706 53.5439 18.0396L54.9368 16.6044C54.2179 15.9066 53.4818 15.2355 52.7295 14.59L51.4273 16.108ZM55.5381 20.0977C56.1765 20.7982 56.7987 21.5236 57.404 22.2747L58.9613 21.0197C58.3305 20.2371 57.682 19.481 57.0164 18.7506L55.5381 20.0977ZM59.1377 24.562C59.6872 25.3333 60.2206 26.1291 60.7373 26.9501L62.43 25.8849C61.8931 25.0317 61.3384 24.2041 60.7665 23.4014L59.1377 24.562ZM62.1976 29.4195C62.6555 30.2443 63.0978 31.0923 63.5241 31.9643L65.3209 31.0859C64.8796 30.1831 64.4212 29.3043 63.9462 28.4487L62.1976 29.4195ZM64.7217 34.577C65.0947 35.4461 65.4528 36.3372 65.7956 37.2507L67.6681 36.548C67.3146 35.606 66.945 34.6862 66.5596 33.7882L64.7217 34.577ZM66.7518 39.98C67.0458 40.8809 67.3258 41.802 67.5914 42.7439L69.5163 42.2011C69.2435 41.2337 68.9557 40.2866 68.6531 39.3596L66.7518 39.98ZM68.3196 45.528C68.5427 46.4506 68.7527 47.3918 68.9493 48.3519L70.9087 47.9507C70.7074 46.968 70.4923 46.0039 70.2636 45.058L68.3196 45.528ZM69.4864 51.2168C69.6452 52.1474 69.7921 53.0947 69.9268 54.0591L71.9076 53.7824C71.7702 52.7985 71.6202 51.8312 71.4579 50.8804L69.4864 51.2168ZM70.2866 56.9357C70.3922 57.8883 70.4864 58.8567 70.5691 59.8412L72.562 59.6738C72.478 58.6721 72.382 57.686 72.2744 56.7154L70.2866 56.9357ZM70.7745 62.7146C70.8313 63.672 70.8776 64.6438 70.9132 65.6302L72.9119 65.5581C72.8757 64.5565 72.8287 63.5692 72.771 62.5961L70.7745 62.7146Z" fill="currentColor"/>
</g>
<defs>
<filter id="filter0_d_0_108" x="-0.00390625" y="0" width="81.6836" height="78" filterUnits="userSpaceOnUse" color-interpolation-filters="sRGB">
<feFlood flood-opacity="0" result="BackgroundImageFix"/>
<feColorMatrix in="SourceAlpha" type="matrix" values="0 0 0 0 0 0 0 0 0 0 0 0 0 0 0 0 0 0 127 0" result="hardAlpha"/>
<feOffset dy="4"/>
<feGaussianBlur stdDeviation="2"/>
<feComposite in2="hardAlpha" operator="out"/>
<feColorMatrix type="matrix" values="0 0 0 0 0 0 0 0 0 0 0 0 0 0 0 0 0 0 0.25 0"/>
<feBlend mode="normal" in2="BackgroundImageFix" result="effect1_dropShadow_0_108"/>
<feBlend mode="normal" in="SourceGraphic" in2="effect1_dropShadow_0_108" result="shape"/>
</filter>
</defs>
</svg>
