<svg width="24" height="24" viewBox="0 0 24 24" fill="none" xmlns="http://www.w3.org/2000/svg">
<circle cx="12" cy="12" r="12" fill="#6BBC13"/>
<path d="M16.1834 9.19501L15.459 8.41664C15.3597 8.30983 15.2389 8.25641 15.0969 8.25641C14.9548 8.25641 14.8339 8.30983 14.7346 8.41664L11.2402 12.1769L9.67418 10.4885C9.57473 10.3817 9.454 10.3283 9.312 10.3283C9.16991 10.3283 9.04918 10.3817 8.94974 10.4885L8.22532 11.2669C8.12587 11.3737 8.07617 11.5035 8.07617 11.6561C8.07617 11.8087 8.12587 11.9386 8.22532 12.0454L10.1536 14.1172L10.878 14.8956C10.9774 15.0024 11.0982 15.0558 11.2402 15.0558C11.3822 15.0558 11.503 15.0023 11.6025 14.8956L12.3269 14.1172L16.1834 9.97345C16.2828 9.8666 16.3326 9.73686 16.3326 9.5842C16.3327 9.43163 16.2828 9.30186 16.1834 9.19501Z" fill="white"/>
</svg>
